<svg width="100" height="22" viewBox="0 0 100 22" fill="none" xmlns="http://www.w3.org/2000/svg">
<path fill-rule="evenodd" clip-rule="evenodd" d="M62.4113 20.2766V1H5C2.79086 1 1 2.79086 1 5V16.2766C1 18.4857 2.79086 20.2766 5 20.2766H62.4113ZM62.4113 0H62.8298H63.8298H95C97.7614 0 100 2.23858 100 5V16.2766C100 19.038 97.7614 21.2766 95 21.2766H63.8298H62.8298H62.4113H5C2.23857 21.2766 0 19.038 0 16.2766V5C0 2.23857 2.23858 0 5 0H62.4113Z" fill="url(#paint0_linear)"/>
<path d="M12.225 9.54473C13.0125 9.69036 13.6109 9.99722 14.0203 10.4653C14.4403 10.9334 14.6503 11.5419 14.6503 12.2908C14.6503 13.2166 14.3091 13.9291 13.6266 14.4284C12.9442 14.9277 11.9311 15.1774 10.5872 15.1774H5.67377V4.25537H10.2723C11.4691 4.25537 12.3983 4.49982 13.0597 4.9887C13.7316 5.46719 14.0676 6.15372 14.0676 7.04828C14.0676 7.67239 13.8996 8.19769 13.5636 8.62417C13.2382 9.05064 12.792 9.3575 12.225 9.54473ZM6.47693 4.9419V9.29509H10.2408C11.2067 9.29509 11.9468 9.11306 12.4613 8.74899C12.9862 8.37452 13.2487 7.82842 13.2487 7.11069C13.2487 6.40336 12.9862 5.86766 12.4613 5.5036C11.9468 5.12913 11.2067 4.9419 10.2408 4.9419H6.47693ZM10.5872 14.4908C11.6581 14.4908 12.4665 14.3088 13.0125 13.9447C13.5689 13.5703 13.8471 12.9982 13.8471 12.2284C13.8471 11.4587 13.5689 10.8918 13.0125 10.5277C12.4665 10.1636 11.6581 9.98161 10.5872 9.98161H6.47693V14.4908H10.5872Z" fill="#B993D6"/>
<path d="M24.2087 11.2923H17.1378C17.1588 11.9268 17.3215 12.4937 17.626 12.993C17.9304 13.4818 18.3399 13.8615 18.8543 14.132C19.3793 14.4024 19.9672 14.5376 20.6181 14.5376C21.1536 14.5376 21.647 14.444 22.0985 14.2568C22.5604 14.0592 22.9436 13.7731 23.2481 13.3986L23.7048 13.9135C23.3478 14.34 22.8964 14.6677 22.3504 14.8965C21.815 15.1253 21.2323 15.2398 20.6024 15.2398C19.7835 15.2398 19.0538 15.0629 18.4134 14.7093C17.7729 14.3556 17.269 13.8667 16.9015 13.2426C16.5446 12.6185 16.3661 11.906 16.3661 11.105C16.3661 10.3145 16.5341 9.60714 16.87 8.98303C17.2165 8.34852 17.689 7.85443 18.2874 7.50076C18.8858 7.1471 19.5578 6.97027 20.3032 6.97027C21.0486 6.97027 21.7153 7.1471 22.3032 7.50076C22.9016 7.84402 23.3688 8.32771 23.7048 8.95183C24.0513 9.57594 24.2245 10.2833 24.2245 11.0738L24.2087 11.2923ZM20.3032 7.65679C19.7257 7.65679 19.206 7.78681 18.7441 8.04686C18.2821 8.29651 17.9094 8.65537 17.626 9.12346C17.353 9.58114 17.1955 10.1012 17.1535 10.6837H23.4528C23.4213 10.1012 23.2638 9.58114 22.9804 9.12346C22.6969 8.66577 22.3242 8.30691 21.8622 8.04686C21.4003 7.78681 20.8806 7.65679 20.3032 7.65679Z" fill="#B993D6"/>
<path d="M29.2014 6.97027C30.2198 6.97027 31.002 7.23031 31.5479 7.75041C32.0939 8.2601 32.3668 9.01424 32.3668 10.0128V15.1774H31.6109V13.7263C31.3484 14.2048 30.9652 14.5792 30.4613 14.8497C29.9573 15.1097 29.3537 15.2398 28.6502 15.2398C27.7368 15.2398 27.0124 15.0265 26.477 14.6001C25.952 14.1736 25.6896 13.6119 25.6896 12.9149C25.6896 12.2388 25.931 11.6927 26.414 11.2766C26.9074 10.8502 27.6896 10.6369 28.7605 10.6369H31.5794V9.98161C31.5794 9.22228 31.3694 8.64497 30.9495 8.2497C30.54 7.85443 29.9363 7.65679 29.1384 7.65679C28.5925 7.65679 28.0676 7.75041 27.5636 7.93764C27.0702 8.12488 26.6502 8.37452 26.3037 8.68658L25.91 8.12487C26.3195 7.76081 26.8129 7.47996 27.3904 7.28232C27.9678 7.07428 28.5715 6.97027 29.2014 6.97027ZM28.7605 14.6001C29.4429 14.6001 30.0203 14.444 30.4928 14.132C30.9757 13.8199 31.3379 13.3674 31.5794 12.7745V11.2454H28.7762C27.9678 11.2454 27.3799 11.3911 27.0124 11.6823C26.6555 11.9736 26.477 12.374 26.477 12.8837C26.477 13.4142 26.6765 13.8355 27.0754 14.1476C27.4744 14.4492 28.0361 14.6001 28.7605 14.6001Z" fill="#B993D6"/>
<path d="M42.8081 7.03268V15.1774H42.0521V13.4298C41.7792 14.0019 41.375 14.4492 40.8395 14.7717C40.3041 15.0837 39.6742 15.2398 38.9497 15.2398C37.8788 15.2398 37.0389 14.9433 36.43 14.3504C35.8211 13.7575 35.5166 12.9045 35.5166 11.7915V7.03268H36.304V11.7291C36.304 12.6445 36.5402 13.3414 37.0127 13.8199C37.4851 14.2984 38.1518 14.5376 39.0127 14.5376C39.9366 14.5376 40.6663 14.2516 41.2017 13.6795C41.7477 13.1074 42.0206 12.3376 42.0206 11.3703V7.03268H42.8081Z" fill="#B993D6"/>
<path d="M50.2246 14.6625C50.0251 14.8497 49.7732 14.9953 49.4687 15.0993C49.1747 15.193 48.865 15.2398 48.5396 15.2398C47.8256 15.2398 47.2745 15.0473 46.886 14.6625C46.4975 14.2672 46.3033 13.7211 46.3033 13.0242V7.7036H44.7915V7.03268H46.3033V5.25395H47.0907V7.03268H49.7049V7.7036H47.0907V12.9462C47.0907 13.4766 47.2167 13.8823 47.4687 14.1632C47.7312 14.4336 48.1144 14.5688 48.6183 14.5688C49.1327 14.5688 49.5579 14.418 49.8939 14.1164L50.2246 14.6625Z" fill="#B993D6"/>
<path d="M58.8653 7.03268L54.6447 16.2852C54.3298 17.0029 53.9623 17.5126 53.5423 17.8142C53.1329 18.1159 52.6447 18.2667 52.0778 18.2667C51.6998 18.2667 51.3428 18.2043 51.0069 18.0795C50.6814 17.9547 50.4032 17.7726 50.1722 17.5334L50.5659 16.9405C50.9859 17.367 51.4951 17.5802 52.0935 17.5802C52.4925 17.5802 52.8337 17.471 53.1171 17.2525C53.4006 17.0341 53.6631 16.6596 53.9046 16.1291L54.3455 15.1462L50.6447 7.03268H51.4793L54.7707 14.3192L58.0621 7.03268H58.8653Z" fill="#B993D6"/>
<path d="M74.0156 9.51353C74.6501 9.69036 75.1494 10.0128 75.5135 10.4809C75.8776 10.9386 76.0596 11.5211 76.0596 12.2284C76.0596 13.175 75.7007 13.9031 74.983 14.4128C74.2757 14.9225 73.2407 15.1774 71.878 15.1774H66.6667V4.25537H71.566C72.8142 4.25537 73.7764 4.50502 74.4525 5.00431C75.139 5.5036 75.4823 6.19532 75.4823 7.07948C75.4823 7.65159 75.3471 8.14568 75.0766 8.56175C74.8166 8.97783 74.4629 9.29509 74.0156 9.51353ZM68.227 5.5192V9.01424H71.4256C72.2265 9.01424 72.8402 8.86861 73.2667 8.57736C73.7036 8.2757 73.922 7.83882 73.922 7.26672C73.922 6.69461 73.7036 6.26294 73.2667 5.97168C72.8402 5.67003 72.2265 5.5192 71.4256 5.5192H68.227ZM71.8156 13.9135C72.6998 13.9135 73.3655 13.7679 73.8128 13.4766C74.2601 13.1854 74.4837 12.7277 74.4837 12.1036C74.4837 10.8866 73.5943 10.2781 71.8156 10.2781H68.227V13.9135H71.8156Z" fill="white"/>
<path d="M85.9648 6.90785V15.1774H84.545V13.9291C84.2433 14.3556 83.8429 14.6885 83.3436 14.9277C82.8547 15.1566 82.319 15.271 81.7365 15.271C80.6339 15.271 79.7653 14.9693 79.1308 14.366C78.4963 13.7523 78.179 12.8525 78.179 11.6667V6.90785H79.6769V11.4951C79.6769 12.296 79.8693 12.9045 80.2542 13.3206C80.6391 13.7263 81.1904 13.9291 81.9081 13.9291C82.6986 13.9291 83.3228 13.6899 83.7804 13.2114C84.2381 12.7329 84.467 12.0568 84.467 11.183V6.90785H85.9648Z" fill="white"/>
<path d="M96.1341 6.90785L92.1242 16.0043C91.7705 16.8469 91.3544 17.4398 90.876 17.783C90.4079 18.1263 89.841 18.2979 89.1752 18.2979C88.7696 18.2979 88.3743 18.2303 87.9894 18.0951C87.615 17.9703 87.3029 17.783 87.0533 17.5334L87.693 16.41C88.1195 16.8157 88.6135 17.0185 89.1752 17.0185C89.5393 17.0185 89.841 16.9197 90.0802 16.722C90.3299 16.5348 90.5535 16.2071 90.7511 15.7391L91.0164 15.1618L87.3653 6.90785H88.9256L91.8121 13.5235L94.6674 6.90785H96.1341Z" fill="white"/>
<defs>
<linearGradient id="paint0_linear" x1="100.709" y1="11.3475" x2="5.16076e-06" y2="9.21985" gradientUnits="userSpaceOnUse">
<stop stop-color="#8CA6DB"/>
<stop offset="1" stop-color="#B993D6"/>
</linearGradient>
</defs>
</svg>
