<svg width="105" height="42" viewBox="0 0 105 42" fill="none" xmlns="http://www.w3.org/2000/svg">
<g filter="url(#filter0_d)">
<path fill-rule="evenodd" clip-rule="evenodd" d="M65.4113 30.2766V11H8C5.79086 11 4 12.7909 4 15V26.2766C4 28.4857 5.79086 30.2766 8 30.2766H65.4113ZM65.4113 10H65.8298H66.8298H98C100.761 10 103 12.2386 103 15V26.2766C103 29.038 100.761 31.2766 98 31.2766H66.8298H65.8298H65.4113H8C5.23857 31.2766 3 29.038 3 26.2766V15C3 12.2386 5.23858 10 8 10H65.4113Z" fill="url(#paint0_linear)"/>
</g>
<path d="M15.225 19.5447C16.0125 19.6904 16.6109 19.9972 17.0203 20.4653C17.4403 20.9334 17.6503 21.5419 17.6503 22.2908C17.6503 23.2166 17.3091 23.9291 16.6266 24.4284C15.9442 24.9277 14.9311 25.1774 13.5872 25.1774H8.67377V14.2554H13.2723C14.4691 14.2554 15.3983 14.4998 16.0597 14.9887C16.7316 15.4672 17.0676 16.1537 17.0676 17.0483C17.0676 17.6724 16.8996 18.1977 16.5636 18.6242C16.2382 19.0506 15.792 19.3575 15.225 19.5447ZM9.47693 14.9419V19.2951H13.2408C14.2067 19.2951 14.9468 19.1131 15.4613 18.749C15.9862 18.3745 16.2487 17.8284 16.2487 17.1107C16.2487 16.4034 15.9862 15.8677 15.4613 15.5036C14.9468 15.1291 14.2067 14.9419 13.2408 14.9419H9.47693ZM13.5872 24.4908C14.6581 24.4908 15.4665 24.3088 16.0125 23.9447C16.5689 23.5703 16.8471 22.9982 16.8471 22.2284C16.8471 21.4587 16.5689 20.8918 16.0125 20.5277C15.4665 20.1636 14.6581 19.9816 13.5872 19.9816H9.47693V24.4908H13.5872Z" fill="#B993D6"/>
<path d="M27.2087 21.2923H20.1378C20.1588 21.9268 20.3215 22.4937 20.626 22.993C20.9304 23.4818 21.3399 23.8615 21.8543 24.132C22.3793 24.4024 22.9672 24.5376 23.6181 24.5376C24.1536 24.5376 24.647 24.444 25.0985 24.2568C25.5604 24.0592 25.9436 23.7731 26.2481 23.3986L26.7048 23.9135C26.3478 24.34 25.8964 24.6677 25.3504 24.8965C24.815 25.1253 24.2323 25.2398 23.6024 25.2398C22.7835 25.2398 22.0538 25.0629 21.4134 24.7093C20.7729 24.3556 20.269 23.8667 19.9015 23.2426C19.5446 22.6185 19.3661 21.906 19.3661 21.105C19.3661 20.3145 19.5341 19.6071 19.87 18.983C20.2165 18.3485 20.689 17.8544 21.2874 17.5008C21.8858 17.1471 22.5578 16.9703 23.3032 16.9703C24.0486 16.9703 24.7153 17.1471 25.3032 17.5008C25.9016 17.844 26.3688 18.3277 26.7048 18.9518C27.0513 19.5759 27.2245 20.2833 27.2245 21.0738L27.2087 21.2923ZM23.3032 17.6568C22.7257 17.6568 22.206 17.7868 21.7441 18.0469C21.2821 18.2965 20.9094 18.6554 20.626 19.1235C20.353 19.5811 20.1955 20.1012 20.1535 20.6837H26.4528C26.4213 20.1012 26.2638 19.5811 25.9804 19.1235C25.6969 18.6658 25.3242 18.3069 24.8622 18.0469C24.4003 17.7868 23.8806 17.6568 23.3032 17.6568Z" fill="#B993D6"/>
<path d="M32.2014 16.9703C33.2198 16.9703 34.002 17.2303 34.5479 17.7504C35.0939 18.2601 35.3668 19.0142 35.3668 20.0128V25.1774H34.6109V23.7263C34.3484 24.2048 33.9652 24.5792 33.4613 24.8497C32.9573 25.1097 32.3537 25.2398 31.6502 25.2398C30.7368 25.2398 30.0124 25.0265 29.477 24.6001C28.952 24.1736 28.6896 23.6119 28.6896 22.9149C28.6896 22.2388 28.931 21.6927 29.414 21.2766C29.9074 20.8502 30.6896 20.6369 31.7605 20.6369H34.5794V19.9816C34.5794 19.2223 34.3694 18.645 33.9495 18.2497C33.54 17.8544 32.9363 17.6568 32.1384 17.6568C31.5925 17.6568 31.0676 17.7504 30.5636 17.9376C30.0702 18.1249 29.6502 18.3745 29.3037 18.6866L28.91 18.1249C29.3195 17.7608 29.8129 17.48 30.3904 17.2823C30.9678 17.0743 31.5715 16.9703 32.2014 16.9703ZM31.7605 24.6001C32.4429 24.6001 33.0203 24.444 33.4928 24.132C33.9757 23.8199 34.3379 23.3674 34.5794 22.7745V21.2454H31.7762C30.9678 21.2454 30.3799 21.3911 30.0124 21.6823C29.6555 21.9736 29.477 22.374 29.477 22.8837C29.477 23.4142 29.6765 23.8355 30.0754 24.1476C30.4744 24.4492 31.0361 24.6001 31.7605 24.6001Z" fill="#B993D6"/>
<path d="M45.8081 17.0327V25.1774H45.0521V23.4298C44.7792 24.0019 44.375 24.4492 43.8395 24.7717C43.3041 25.0837 42.6742 25.2398 41.9497 25.2398C40.8788 25.2398 40.0389 24.9433 39.43 24.3504C38.8211 23.7575 38.5166 22.9045 38.5166 21.7915V17.0327H39.304V21.7291C39.304 22.6445 39.5402 23.3414 40.0127 23.8199C40.4851 24.2984 41.1518 24.5376 42.0127 24.5376C42.9366 24.5376 43.6663 24.2516 44.2017 23.6795C44.7477 23.1074 45.0206 22.3376 45.0206 21.3703V17.0327H45.8081Z" fill="#B993D6"/>
<path d="M53.2246 24.6625C53.0251 24.8497 52.7732 24.9953 52.4687 25.0993C52.1747 25.193 51.865 25.2398 51.5396 25.2398C50.8256 25.2398 50.2745 25.0473 49.886 24.6625C49.4975 24.2672 49.3033 23.7211 49.3033 23.0242V17.7036H47.7915V17.0327H49.3033V15.254H50.0907V17.0327H52.7049V17.7036H50.0907V22.9462C50.0907 23.4766 50.2167 23.8823 50.4687 24.1632C50.7312 24.4336 51.1144 24.5688 51.6183 24.5688C52.1327 24.5688 52.5579 24.418 52.8939 24.1164L53.2246 24.6625Z" fill="#B993D6"/>
<path d="M61.8653 17.0327L57.6447 26.2852C57.3298 27.0029 56.9623 27.5126 56.5423 27.8142C56.1329 28.1159 55.6447 28.2667 55.0778 28.2667C54.6998 28.2667 54.3428 28.2043 54.0069 28.0795C53.6814 27.9547 53.4032 27.7726 53.1722 27.5334L53.5659 26.9405C53.9859 27.367 54.4951 27.5802 55.0935 27.5802C55.4925 27.5802 55.8337 27.471 56.1171 27.2525C56.4006 27.0341 56.6631 26.6596 56.9046 26.1291L57.3455 25.1462L53.6447 17.0327H54.4793L57.7707 24.3192L61.0621 17.0327H61.8653Z" fill="#B993D6"/>
<path d="M77.0156 19.5135C77.6501 19.6904 78.1494 20.0128 78.5135 20.4809C78.8776 20.9386 79.0596 21.5211 79.0596 22.2284C79.0596 23.175 78.7007 23.9031 77.983 24.4128C77.2757 24.9225 76.2407 25.1774 74.878 25.1774H69.6667V14.2554H74.566C75.8142 14.2554 76.7764 14.505 77.4525 15.0043C78.139 15.5036 78.4823 16.1953 78.4823 17.0795C78.4823 17.6516 78.3471 18.1457 78.0766 18.5618C77.8166 18.9778 77.4629 19.2951 77.0156 19.5135ZM71.227 15.5192V19.0142H74.4256C75.2265 19.0142 75.8402 18.8686 76.2667 18.5774C76.7036 18.2757 76.922 17.8388 76.922 17.2667C76.922 16.6946 76.7036 16.2629 76.2667 15.9717C75.8402 15.67 75.2265 15.5192 74.4256 15.5192H71.227ZM74.8156 23.9135C75.6998 23.9135 76.3655 23.7679 76.8128 23.4766C77.2601 23.1854 77.4837 22.7277 77.4837 22.1036C77.4837 20.8866 76.5943 20.2781 74.8156 20.2781H71.227V23.9135H74.8156Z" fill="white"/>
<path d="M88.9648 16.9079V25.1774H87.545V23.9291C87.2433 24.3556 86.8429 24.6885 86.3436 24.9277C85.8547 25.1566 85.319 25.271 84.7365 25.271C83.6339 25.271 82.7653 24.9693 82.1308 24.366C81.4963 23.7523 81.179 22.8525 81.179 21.6667V16.9079H82.6769V21.4951C82.6769 22.296 82.8693 22.9045 83.2542 23.3206C83.6391 23.7263 84.1904 23.9291 84.9081 23.9291C85.6986 23.9291 86.3228 23.6899 86.7804 23.2114C87.2381 22.7329 87.467 22.0568 87.467 21.183V16.9079H88.9648Z" fill="white"/>
<path d="M99.1341 16.9079L95.1242 26.0043C94.7705 26.8469 94.3544 27.4398 93.876 27.783C93.4079 28.1263 92.841 28.2979 92.1752 28.2979C91.7696 28.2979 91.3743 28.2303 90.9894 28.0951C90.615 27.9703 90.3029 27.783 90.0533 27.5334L90.693 26.41C91.1195 26.8157 91.6135 27.0185 92.1752 27.0185C92.5393 27.0185 92.841 26.9197 93.0802 26.722C93.3299 26.5348 93.5535 26.2071 93.7511 25.7391L94.0164 25.1618L90.3653 16.9079H91.9256L94.8121 23.5235L97.6674 16.9079H99.1341Z" fill="white"/>
<defs>
<filter id="filter0_d" x="-7" y="0" width="120" height="41.2766" filterUnits="userSpaceOnUse" color-interpolation-filters="sRGB">
<feFlood flood-opacity="0" result="BackgroundImageFix"/>
<feColorMatrix in="SourceAlpha" type="matrix" values="0 0 0 0 0 0 0 0 0 0 0 0 0 0 0 0 0 0 127 0"/>
<feOffset/>
<feGaussianBlur stdDeviation="5"/>
<feColorMatrix type="matrix" values="0 0 0 0 0.615686 0 0 0 0 0.623529 0 0 0 0 0.85098 0 0 0 0.25 0"/>
<feBlend mode="normal" in2="BackgroundImageFix" result="effect1_dropShadow"/>
<feBlend mode="normal" in="SourceGraphic" in2="effect1_dropShadow" result="shape"/>
</filter>
<linearGradient id="paint0_linear" x1="103.709" y1="21.3475" x2="3.00001" y2="19.2198" gradientUnits="userSpaceOnUse">
<stop stop-color="#8CA6DB"/>
<stop offset="1" stop-color="#B993D6"/>
</linearGradient>
</defs>
</svg>
